{"title":"London Pitbulls 2012 BRRip x264 AAC-OFFLiNE","uid":8211818,"size":746336246,"categoryP":"video","categoryS":"movies","magnet":"?xt=urn:btih:f29a7db7853bda72823ffdc96f76c4901bf2c120&amp;dn=London+Pitbulls+2012+BRRip+x264+AAC-OFFLiNE&amp;tr=udp%3A%2F%2Ftracker.openbittorrent.com%3A80&amp;tr=udp%3A%2F%2Fopen.demonii.com%3A1337&amp;tr=udp%3A%2F%2Ftracker.coppersurfer.tk%3A6969&amp;tr=udp%3A%2F%2Fexodus.desync.com%3A6969","seeders":1,"leechers":0,"uploader":"xxxlavalxxx","files":3,"time":1362256002,"description":"\n &lt;a href=&quot;\nhttp://www.imdb.com/title/tt2241475/&quot; rel=&quot;nofollow&quot; target=&quot;_NEW&quot;&gt;\nhttp://www.imdb.com/title/tt2241475/&lt;/a&gt;\n\n\nDirector:\n Simon Phillips\n\nWriters:\n James Crow (screenplay), Simon Phillips (story) \n\nStars:\n Nick Nevern, Kellie Shirley, Jenna Harrison\n\nGenres:\n Crime \n\nCountry:\nUK\n\nLanguage:\nEnglish \n\n\nSource: London.Pitbulls.2012.DL.1080p.BluRay.x264-EPHEMERiD\n\n^^^ a.k.a G.B.H. 2012\n &lt;a href=&quot;\nhttp://www.imdb.com/title/tt2241475/&quot; rel=&quot;nofollow&quot; target=&quot;_NEW&quot;&gt;\nhttp://www.imdb.com/title/tt2241475/&lt;/a&gt;\n\nLondon Burns. Choose your side.\n\nGeneral\nComplete name                            : London Pitbulls 2012 BRRip x264 AAC-OFFLiNE.mp4\nFormat                                   : MPEG-4\nFormat profile                           : Base Media\nCodec ID                                 : isom\nFile size                                : 700 MiB\nDuration                                 : 1h 23mn\nOverall bit rate mode                    : Variable\nOverall bit rate                         : 1 171 Kbps\nEncoded date                             : UTC 2013-03-02 17:44:31\nTagged date                              : UTC 2013-03-02 17:44:31\n\nVideo\nID                                       : 1\nFormat                                   : AVC\nFormat/Info                              : Advanced Video Codec\nFormat profile                           : &lt;a class=&quot;__cf_email__&quot; href=&quot;/cdn-cgi/l/email-protection&quot; data-cfemail=&quot;b9f1d0ded1f9f58d9788&quot;&gt;[email&amp;#160;protected]&lt;/a&gt;&lt;script cf-hash='f9e31' type=&quot;text/javascript&quot;&gt;\n/* &lt;![CDATA[ */!function(){try{var t=&quot;currentScript&quot;in document?document.currentScript:function(){for(var t=document.getElementsByTagName(&quot;script&quot;),e=t.length;e--;)if(t[e].getAttribute(&quot;cf-hash&quot;))return t[e]}();if(t&amp;&amp;t.previousSibling){var e,r,n,i,c=t.previousSibling,a=c.getAttribute(&quot;data-cfemail&quot;);if(a){for(e=&quot;&quot;,r=parseInt(a.substr(0,2),16),n=2;a.length-n;n+=2)i=parseInt(a.substr(n,2),16)^r,e+=String.fromCharCode(i);e=document.createTextNode(e),c.parentNode.replaceChild(e,c)}}}catch(u){}}();/* ]]&gt; */&lt;/script&gt;\nFormat settings, CABAC                   : Yes\nFormat settings, ReFrames                : 3 frames\nCodec ID                                 : avc1\nCodec ID/Info                            : Advanced Video Coding\nDuration                                 : 1h 23mn\nBit rate mode                            : Variable\nBit rate                                 : 887 Kbps\nMaximum bit rate                         : 40.0 Mbps\nWidth                                    : 720 pixels\nHeight                                   : 304 pixels\nDisplay aspect ratio                     : 2.35:1\nFrame rate mode                          : Constant\nFrame rate                               : 23.976 fps\nColor space                              : YUV\nChroma subsampling                       : 4:2:0\nBit depth                                : 8 bits\nScan type                                : Progressive\nBits/(Pixel*Frame)                       : 0.169\nStream size                              : 530 MiB (76%)\nWriting library                          : x264 core 130 r2273 b3065e6\n\nAudio\nID                                       : 2\nFormat                                   : AAC\nFormat/Info                              : Advanced Audio Codec\nFormat profile                           : LC\nCodec ID                                 : 40\nDuration                                 : 1h 23mn\nBit rate mode                            : Variable\nBit rate                                 : 281 Kbps\nMaximum bit rate                         : 382 Kbps\nChannel(s)                               : 6 channels\nChannel positions                        : Front: L C R, Side: L R, LFE\nSampling rate                            : 48.0 KHz\nCompression mode                         : Lossy\nStream size                              : 168 MiB (24%)\nLanguage                                 : English\nEncoded date                             : UTC 2013-03-02 15:41:00\nTagged date                              : UTC 2013-03-02 17:45:02\n\n\n\n &lt;a href=&quot;\nhttp://bayimg.com/HAKHnAAeB&quot; rel=&quot;nofollow&quot; target=&quot;_NEW&quot;&gt;\nhttp://bayimg.com/HAKHnAAeB&lt;/a&gt; &lt;a href=&quot;\nhttp://bayimg.com/hAKhpaaeB&quot; rel=&quot;nofollow&quot; target=&quot;_NEW&quot;&gt;\nhttp://bayimg.com/hAKhpaaeB&lt;/a&gt; &lt;a href=&quot;\nhttp://bayimg.com/iaKHAaAEB&quot; rel=&quot;nofollow&quot; target=&quot;_NEW&quot;&gt;\nhttp://bayimg.com/iaKHAaAEB&lt;/a&gt;","torrent":{"xt":"urn:btih:f29a7db7853bda72823ffdc96f76c4901bf2c120","amp;dn":"London+Pitbulls+2012+BRRip+x264+AAC-OFFLiNE","amp;tr":["udp%3A%2F%2Ftracker.openbittorrent.com%3A80","udp%3A%2F%2Fopen.demonii.com%3A1337","udp%3A%2F%2Ftracker.coppersurfer.tk%3A6969","udp%3A%2F%2Fexodus.desync.com%3A6969"],"infoHash":"f29a7db7853bda72823ffdc96f76c4901bf2c120","infoHashBuffer":{"type":"Buffer","data":[242,154,125,183,133,59,218,114,130,63,253,201,111,118,196,144,27,242,193,32]},"announce":[],"urlList":[]}}